<!-- icon666.com - MILLIONS vector ICONS FREE --><svg viewBox="0 0 64 64" xmlns="http://www.w3.org/2000/svg" xmlns:xlink="http://www.w3.org/1999/xlink"><linearGradient id="linear-gradient" gradientUnits="userSpaceOnUse" x1="2.75" x2="25" y1="32" y2="32"><stop offset="0" stop-color="#fff"></stop><stop offset="0" stop-color="#fff"></stop><stop offset=".79" stop-color="#fff"></stop><stop offset="1" stop-color="#fff"></stop></linearGradient><linearGradient id="linear-gradient-2" x1="21.56" x2="42.44" xlink:href="#linear-gradient"></linearGradient><g id="Layer_4" data-name="Layer 4"><path d="m32 2.75a29.25 29.25 0 1 0 29.25 29.25 29.28 29.28 0 0 0 -29.25-29.25zm0 56a26.75 26.75 0 1 1 26.75-26.75 26.78 26.78 0 0 1 -26.75 26.75z" fill="url(#linear-gradient)"></path><path d="m42.08 21.92a1.27 1.27 0 0 0 -1.77 0l-8.31 8.31-8.31-8.31a1.25 1.25 0 1 0 -1.77 1.77l8.31 8.31-8.31 8.31a1.27 1.27 0 0 0 0 1.77 1.28 1.28 0 0 0 .89.36 1.24 1.24 0 0 0 .88-.36l8.31-8.31 8.31 8.31a1.24 1.24 0 0 0 .88.36 1.28 1.28 0 0 0 .89-.36 1.27 1.27 0 0 0 0-1.77l-8.31-8.31 8.31-8.31a1.27 1.27 0 0 0 0-1.77z" fill="url(#linear-gradient-2)"></path></g></svg>