<!-- icon666.com - MILLIONS vector ICONS FREE --><svg clip-rule="evenodd" fill-rule="evenodd" image-rendering="optimizeQuality" shape-rendering="geometricPrecision" text-rendering="geometricPrecision" viewBox="0 0 1706.66 1706.66" xmlns="http://www.w3.org/2000/svg" xmlns:xlink="http://www.w3.org/1999/xlink" xmlns:xodm="http://www.corel.com/coreldraw/odm/2003"><linearGradient id="id0" gradientUnits="userSpaceOnUse" x1="114.81" x2="1591.83" y1="853.33" y2="853.33"><stop offset="0" stop-color="rgb(22, 192, 192)"></stop>
<stop offset="1" stop-color="rgb(22, 192, 192)">
    </stop></linearGradient><g id="Layer_x0020_1">
        <path d="m888.86 1293.61c-46.62 0-114.44 11.55-114.44-44.17v-43.06c-40.69-9.02-78.89-24.86-114.17-47.22-20.19 20.19-56.48 67.13-93.06 30.56-33.06-33.06-89.15-72.8-49.72-112.22l30.56-30.56c-22.36-35.14-38.33-73.47-47.36-114.02-30.3-.01-87.36 7.64-87.36-44.17 0-46.53-11.53-114.3 44.17-114.3h43.06c9.03-40.69 24.86-78.89 47.22-114.17-21.49-21.49-67.23-56.39-30.56-93.06l49.72-49.73c36.54-36.54 72.8 10.3 92.92 30.42 35.14-22.36 73.47-38.33 114.02-47.36 0-30.29-7.65-87.36 44.17-87.36 46.62 0 114.45-11.55 114.45 44.17v43.06c40.69 9.03 78.89 24.86 114.17 47.22 20.19-20.19 56.48-67.13 93.06-30.56 33.07 33.06 89.15 72.8 49.72 112.22l-30.56 30.56c22.36 35.14 38.33 73.47 47.5 114.03 30.3 0 87.36-7.65 87.36 44.17 0 46.62 11.54 114.43-44.17 114.44h-43.06c-9.03 40.69-24.87 78.89-47.22 114.17 19.83 19.83 67.8 55.82 30.56 93.06l-49.72 49.72c-36.63 36.62-72.89-10.44-92.92-30.56-35.14 22.36-73.47 38.33-114.03 47.36 0 30.08 7.61 87.35-44.3 87.35zm-35.56 237.5c-2.22 0-4.44-.41-6.53-1.11-667.28-227.32-580.42-1018.84-571.39-1102.22 1.11-9.58 8.89-17.08 18.47-17.92 394.86-29.17 541.81-224.31 543.2-226.25 7.9-10.94 24.52-10.86 32.22 0 1.39 1.94 148.33 197.09 543.2 226.25 11.1.8 17.01 8.6 18.61 19.31 11.53 88.33 93.47 869.44-571.53 1100.83-1.8.83-4.03 1.11-6.25 1.11zm-540-1082.5c-14.72 132.5-61.39 826.81 540 1041.39 601.39-214.44 554.73-908.89 540.14-1041.39-333.61-28.89-492.08-169.72-540.14-222.08-48.06 52.36-206.53 193.19-540 222.08zm540 1258.06c-2.22 0-4.44-.41-6.53-1.11-838.2-291.67-734.86-1277.36-720.42-1388.75 1.49-10.92 7.67-19.05 18.75-19.86 503.2-37.22 690.28-286.25 692.09-288.75 7.9-10.88 24.24-10.98 32.36.14 1.8 2.5 188.89 251.53 692.09 288.75 11.11.8 17.28 8.74 18.61 19.72 14.58 111.39 117.78 1097.09-720.42 1388.75-2.08.7-4.31 1.11-6.53 1.11zm-688.89-1371.11c-18.05 157.22-85.28 1055.14 688.89 1329.86 774.31-274.72 707.09-1172.64 688.89-1329.86-433.75-36.26-633.75-222.37-688.89-284.17-55.14 61.8-255.14 247.91-688.89 284.17zm688.89 729.58c-116.8 0-211.81-95-211.81-211.81s95-211.81 211.81-211.81c116.8 0 211.81 95 211.81 211.81 0 116.8-95 211.81-211.81 211.81zm0-383.61c-94.72 0-171.8 77.09-171.8 171.8 0 94.72 77.08 171.8 171.8 171.8s171.8-77.08 171.8-171.8-77.08-171.8-171.8-171.8zm-195.7 431.94c18.41 0 47.55 40.59 140.14 56.81 33.69 5.9 5.33 83.33 20.7 83.33h70.28c15.39 0-13.01-77.57 20.7-83.48 112.07-19.62 129.77-75.64 154.17-51.25 13.3 13.3 42.24 47.69 48.06 42.08 12.26-11.83 55.74-49.92 49.72-55.56-98.48-92.32-20.02-32.11 8.75-196.39 5.91-33.7 83.46-5.3 83.46-20.69v-70.28c0-15.39-77.57 13.01-83.47-20.7-19.61-112-75.54-129.63-51.25-154.17 12.75-12.88 47.74-42.39 42.08-48.06l-49.72-49.72c-11.08-11.07-45.68 64.15-73.75 44.44-93.45-65.6-145.15-38.45-145.15-72.92 0-17.04 3.66-63.75-4.17-63.75l-70.27.01c-15.39 0 13.01 77.57-20.7 83.47-112.04 19.61-129.92 75.63-154.31 51.25-13.3-13.3-42.24-47.69-48.06-42.08l-49.72 49.72c-11.01 11.01 64.1 45.7 44.44 73.76-65.85 93.96-38.45 145.15-72.92 145.14-17.04 0-63.6-3.67-63.6 4.16v70.28c0 15.39 77.57-13 83.47 20.7 19.62 112.07 75.64 129.76 51.25 154.17-12.39 12.39-47.7 42.43-42.08 48.06l49.72 49.72c8.74 8.74 41.77-48.07 62.22-48.07z" fill="url(#id0)"></path></g></svg>